<mxfile host="app.diagrams.net" modified="2022-08-24T08:45:25.806Z" agent="5.0 (Macintosh; Intel Mac OS X 10_15_7) AppleWebKit/537.36 (KHTML, like Gecko) Chrome/104.0.0.0 Safari/537.36" etag="NEvpPjLsVQaEc06BUbuq" version="20.2.6" type="github">
  <diagram id="82oc1wLrdtRzRzg-E_jr" name="第 1 页">
    <mxGraphModel dx="1426" dy="624" grid="1" gridSize="10" guides="1" tooltips="1" connect="1" arrows="1" fold="1" page="1" pageScale="1" pageWidth="827" pageHeight="1169" math="0" shadow="0">
      <root>
        <mxCell id="0" />
        <mxCell id="1" parent="0" />
        <mxCell id="vJFe8poDCH_9JE5yJpw2-3" style="edgeStyle=orthogonalEdgeStyle;rounded=0;orthogonalLoop=1;jettySize=auto;html=1;entryX=0;entryY=0.5;entryDx=0;entryDy=0;fontSize=24;fillColor=#dae8fc;strokeColor=#6c8ebf;" edge="1" parent="1" source="vJFe8poDCH_9JE5yJpw2-1" target="vJFe8poDCH_9JE5yJpw2-2">
          <mxGeometry relative="1" as="geometry" />
        </mxCell>
        <mxCell id="vJFe8poDCH_9JE5yJpw2-1" value="" style="outlineConnect=0;dashed=0;verticalLabelPosition=bottom;verticalAlign=top;align=center;html=1;shape=mxgraph.aws3.user;fillColor=#97D077;strokeColor=#82b366;" vertex="1" parent="1">
          <mxGeometry x="50" y="250" width="70" height="100" as="geometry" />
        </mxCell>
        <mxCell id="vJFe8poDCH_9JE5yJpw2-5" value="" style="edgeStyle=orthogonalEdgeStyle;rounded=0;orthogonalLoop=1;jettySize=auto;html=1;fontSize=24;fillColor=#dae8fc;strokeColor=#6c8ebf;" edge="1" parent="1" source="vJFe8poDCH_9JE5yJpw2-2" target="vJFe8poDCH_9JE5yJpw2-4">
          <mxGeometry relative="1" as="geometry" />
        </mxCell>
        <mxCell id="vJFe8poDCH_9JE5yJpw2-2" value="&lt;font style=&quot;font-size: 24px;&quot;&gt;挑选广告产品&lt;/font&gt;" style="rounded=1;whiteSpace=wrap;html=1;fillColor=none;strokeColor=#97D077;" vertex="1" parent="1">
          <mxGeometry x="210" y="270" width="150" height="60" as="geometry" />
        </mxCell>
        <mxCell id="vJFe8poDCH_9JE5yJpw2-7" value="" style="edgeStyle=orthogonalEdgeStyle;rounded=0;orthogonalLoop=1;jettySize=auto;html=1;fontSize=24;fillColor=#dae8fc;strokeColor=#6c8ebf;" edge="1" parent="1" source="vJFe8poDCH_9JE5yJpw2-4" target="vJFe8poDCH_9JE5yJpw2-6">
          <mxGeometry relative="1" as="geometry" />
        </mxCell>
        <mxCell id="vJFe8poDCH_9JE5yJpw2-4" value="&lt;font style=&quot;font-size: 24px;&quot;&gt;推广&lt;/font&gt;" style="whiteSpace=wrap;html=1;fillColor=none;strokeColor=#97D077;rounded=1;" vertex="1" parent="1">
          <mxGeometry x="450" y="270" width="120" height="60" as="geometry" />
        </mxCell>
        <mxCell id="vJFe8poDCH_9JE5yJpw2-6" value="&lt;font style=&quot;font-size: 24px;&quot;&gt;生成结算信息&lt;/font&gt;" style="whiteSpace=wrap;html=1;fillColor=none;strokeColor=#97D077;rounded=1;" vertex="1" parent="1">
          <mxGeometry x="660" y="270" width="120" height="60" as="geometry" />
        </mxCell>
      </root>
    </mxGraphModel>
  </diagram>
</mxfile>
